
[code]
    Inception TS READNFO V2  XViD - IMAGiNE
********************************************************************************************************************

Ripper ...........: IMAGiNE                                        IMDB Rating.......:9.3/10                             
Video Codec.......: XVID                                         Release Date......:08/08/10
Audio Codec.......:MP3                                           Theatre Date......:16/07/10
Audio Bitrate.....:192                                              Runtime.......:2h 14mn
Subtitles.........:NIL                                                 Language..........:ENGLISH
Resolution...... 720 x 304                                     IMDb URL..........:http://www.imdb.com/title/tt1375666/


DETAILS:

Video
ID                               : 0
Format                           : MPEG-4 Visual
Format profile                   : Advanced Simple@L5
Format settings, BVOP            : Yes
Format settings, QPel            : No
Format settings, GMC             : No warppoints
Format settings, Matrix          : Default (MPEG)
Muxing mode                      : Packed bitstream
Codec ID                         : XVID
Codec ID/Hint                    : XviD
Duration                         : 2h 14mn
Bit rate                         : 1 321 Kbps
Width                            : 720 pixels
Height                           : 304 pixels
Display aspect ratio             : 2.35
Frame rate                       : 25.000 fps
Resolution                       : 24 bits
Colorimetry                      : 4:2:0
Scan type                        : Progressive
Bits/(Pixel*Frame)               : 0.241
Stream size                      : 1.24 GiB (87%)
Writing library                  : XviD 1.2.1 (UTC 2008-12-04)

Audio
ID                               : 1
Format                           : MPEG Audio
Format version                   : Version 1
Format profile                   : Layer 3
Codec ID                         : 55
Codec ID/Hint                    : MP3
Duration                         : 2h 14mn
Bit rate mode                    : Constant
Bit rate                         : 192 Kbps
Channel(s)                       : 2 channels
Sampling rate                    : 48.0 KHz
Resolution                       : 16 bits
Stream size                      : 185 MiB (13%)
Alignment                        : Split accross interleaves
Interleave, duration             : 40 ms (1.00 video frame)
Interleave, preload duration     : 500 ms


NOTES:

IMAGiNE bringing you another release.....Inception 

Source used was ORC's homemade video + audio......Thanks guys 
Now the source was nice but suffered from two major things....camera movement and flicker.
Now the flicker only happens a few times and not for long......the bad news is the cammer had ants in his pants 
Got to give orc credit for having the balls to go and do it,so fair play lads .
Right all we've done for this is done a small script to resize,white balance,rgbeq,contrast,brightness and sharpen.
Nothing as been done to the angles or camera movement.....just too bad to do anything decent to it.
The screens below so the good and bad of this release so ....take it or leave.

Enjoy this top film 
[/code]
Screens:
[img]http://a.imageshack.us/img690/2432/vlcsnap238969.png[/img]
[img]http://a.imageshack.us/img508/3507/vlcsnap239189d.png[/img]
[img]http://a.imageshack.us/img822/611/vlcsnap242279.png[/img]
[img]http://a.imageshack.us/img293/3005/vlcsnap242445.png[/img]
[img]http://a.imageshack.us/img29/6954/vlcsnap244167.png[/img]